<svg xmlns="http://www.w3.org/2000/svg" xmlns:xlink="http://www.w3.org/1999/xlink" width="1000" zoomAndPan="magnify" viewBox="0 0 750 225" height="300" preserveAspectRatio="xMidYMid meet" version="1.0"><defs><g/></defs><g fill="#000000" fill-opacity="1"><g transform="translate(8.321859, 173.027818)"><g><path d="M 17.171875 -11.46875 C 8.492188 -20.9375 4.15625 -32.539062 4.15625 -46.28125 C 4.15625 -60.03125 8.492188 -71.664062 17.171875 -81.1875 C 25.859375 -90.707031 36.890625 -95.46875 50.265625 -95.46875 C 62.554688 -95.46875 72.679688 -91.609375 80.640625 -83.890625 L 80.640625 -92.75 L 112.640625 -92.75 L 112.640625 0 L 81 0 L 81 -10.484375 L 80.640625 -10.484375 C 72.679688 -1.679688 62.554688 2.71875 50.265625 2.71875 C 36.890625 2.71875 25.859375 -2.007812 17.171875 -11.46875 Z M 44.390625 -62.015625 C 40.234375 -57.921875 38.15625 -52.675781 38.15625 -46.28125 C 38.15625 -39.894531 40.140625 -34.679688 44.109375 -30.640625 C 48.085938 -26.609375 53.332031 -24.59375 59.84375 -24.59375 C 66.113281 -24.59375 71.265625 -26.640625 75.296875 -30.734375 C 79.335938 -34.835938 81.359375 -40.019531 81.359375 -46.28125 C 81.359375 -52.675781 79.28125 -57.921875 75.125 -62.015625 C 70.96875 -66.117188 65.875 -68.171875 59.84375 -68.171875 C 53.695312 -68.171875 48.546875 -66.117188 44.390625 -62.015625 Z M 44.390625 -62.015625 "/></g></g></g><g fill="#000000" fill-opacity="1"><g transform="translate(114.791903, 173.027818)"><g><path d="M 10.84375 0 L 10.84375 -92.75 L 42.859375 -92.75 L 42.859375 -83 L 43.21875 -83 C 51.53125 -91.3125 60.390625 -95.46875 69.796875 -95.46875 C 76.546875 -95.46875 82.875 -94.082031 88.78125 -91.3125 C 94.6875 -88.539062 99.144531 -84.257812 102.15625 -78.46875 C 111.5625 -89.800781 121.804688 -95.46875 132.890625 -95.46875 C 142.773438 -95.46875 151.273438 -92.691406 158.390625 -87.140625 C 165.503906 -81.597656 169.0625 -72.921875 169.0625 -61.109375 L 169.0625 0 L 137.0625 0 L 137.0625 -52.4375 C 137.0625 -57.375 135.703125 -61.5 132.984375 -64.8125 C 130.273438 -68.132812 126.207031 -69.796875 120.78125 -69.796875 C 116.082031 -69.796875 112.492188 -68.378906 110.015625 -65.546875 C 107.546875 -62.710938 106.191406 -59.304688 105.953125 -55.328125 L 105.953125 0 L 73.953125 0 L 73.953125 -52.4375 C 73.953125 -57.375 72.59375 -61.5 69.875 -64.8125 C 67.164062 -68.132812 63.097656 -69.796875 57.671875 -69.796875 C 52.734375 -69.796875 49.03125 -68.257812 46.5625 -65.1875 C 44.09375 -62.113281 42.859375 -58.46875 42.859375 -54.25 L 42.859375 0 Z M 10.84375 0 "/></g></g></g><g fill="#000000" fill-opacity="1"><g transform="translate(275.855219, 173.027818)"><g><path d="M 10.84375 0 L 10.84375 -92.75 L 42.859375 -92.75 L 42.859375 -83 L 43.21875 -83 C 51.53125 -91.3125 60.390625 -95.46875 69.796875 -95.46875 C 74.378906 -95.46875 78.925781 -94.863281 83.4375 -93.65625 C 87.957031 -92.457031 92.296875 -90.59375 96.453125 -88.0625 C 100.617188 -85.53125 103.992188 -81.941406 106.578125 -77.296875 C 109.171875 -72.660156 110.46875 -67.265625 110.46875 -61.109375 L 110.46875 0 L 78.46875 0 L 78.46875 -52.4375 C 78.46875 -57.257812 76.929688 -61.476562 73.859375 -65.09375 C 70.785156 -68.707031 66.78125 -70.515625 61.84375 -70.515625 C 57.019531 -70.515625 52.648438 -68.644531 48.734375 -64.90625 C 44.816406 -61.175781 42.859375 -57.019531 42.859375 -52.4375 L 42.859375 0 Z M 10.84375 0 "/></g></g></g><g fill="#000000" fill-opacity="1"><g transform="translate(378.348284, 173.027818)"><g><path d="M 13.921875 -144.46875 C 17.660156 -148.207031 22.117188 -150.078125 27.296875 -150.078125 C 32.484375 -150.078125 36.941406 -148.207031 40.671875 -144.46875 C 44.410156 -140.726562 46.28125 -136.265625 46.28125 -131.078125 C 46.28125 -125.898438 44.410156 -121.441406 40.671875 -117.703125 C 36.941406 -113.972656 32.484375 -112.109375 27.296875 -112.109375 C 22.117188 -112.109375 17.660156 -113.972656 13.921875 -117.703125 C 10.179688 -121.441406 8.3125 -125.898438 8.3125 -131.078125 C 8.3125 -136.265625 10.179688 -140.726562 13.921875 -144.46875 Z M 10.84375 -92.75 L 10.84375 0 L 42.859375 0 L 42.859375 -92.75 Z M 10.84375 -92.75 "/></g></g></g><g fill="#000000" fill-opacity="1"><g transform="translate(415.944003, 173.027818)"><g><path d="M 41.046875 -92.75 L 41.046875 -48.640625 C 41.046875 -39.472656 42.429688 -32.960938 45.203125 -29.109375 C 47.972656 -25.253906 52.671875 -23.328125 59.296875 -23.328125 C 65.929688 -23.328125 70.632812 -25.253906 73.40625 -29.109375 C 76.175781 -32.960938 77.5625 -39.472656 77.5625 -48.640625 L 77.5625 -92.75 L 109.578125 -92.75 L 109.578125 -40.859375 C 109.578125 -25.429688 105.566406 -14.3125 97.546875 -7.5 C 89.535156 -0.6875 76.789062 2.71875 59.3125 2.71875 C 41.832031 2.71875 29.082031 -0.6875 21.0625 -7.5 C 13.050781 -14.3125 9.046875 -25.429688 9.046875 -40.859375 L 9.046875 -92.75 Z M 41.046875 -92.75 "/></g></g></g><g fill="#000000" fill-opacity="1"><g transform="translate(517.533177, 173.027818)"><g><path d="M 10.84375 0 L 10.84375 -92.75 L 42.859375 -92.75 L 42.859375 -83 L 43.21875 -83 C 51.53125 -91.3125 60.390625 -95.46875 69.796875 -95.46875 C 76.546875 -95.46875 82.875 -94.082031 88.78125 -91.3125 C 94.6875 -88.539062 99.144531 -84.257812 102.15625 -78.46875 C 111.5625 -89.800781 121.804688 -95.46875 132.890625 -95.46875 C 142.773438 -95.46875 151.273438 -92.691406 158.390625 -87.140625 C 165.503906 -81.597656 169.0625 -72.921875 169.0625 -61.109375 L 169.0625 0 L 137.0625 0 L 137.0625 -52.4375 C 137.0625 -57.375 135.703125 -61.5 132.984375 -64.8125 C 130.273438 -68.132812 126.207031 -69.796875 120.78125 -69.796875 C 116.082031 -69.796875 112.492188 -68.378906 110.015625 -65.546875 C 107.546875 -62.710938 106.191406 -59.304688 105.953125 -55.328125 L 105.953125 0 L 73.953125 0 L 73.953125 -52.4375 C 73.953125 -57.375 72.59375 -61.5 69.875 -64.8125 C 67.164062 -68.132812 63.097656 -69.796875 57.671875 -69.796875 C 52.734375 -69.796875 49.03125 -68.257812 46.5625 -65.1875 C 44.09375 -62.113281 42.859375 -58.46875 42.859375 -54.25 L 42.859375 0 Z M 10.84375 0 "/></g></g></g><g fill="#000000" fill-opacity="1"><g transform="translate(678.596511, 173.027818)"><g><path d="M 31.46875 -38.6875 C 37.25 -38.6875 42.15625 -36.664062 46.1875 -32.625 C 50.226562 -28.59375 52.25 -23.6875 52.25 -17.90625 C 52.25 -12.238281 50.226562 -7.382812 46.1875 -3.34375 C 42.15625 0.695312 37.25 2.71875 31.46875 2.71875 C 25.800781 2.71875 20.945312 0.695312 16.90625 -3.34375 C 12.863281 -7.382812 10.84375 -12.238281 10.84375 -17.90625 C 10.84375 -23.6875 12.863281 -28.59375 16.90625 -32.625 C 20.945312 -36.664062 25.800781 -38.6875 31.46875 -38.6875 Z M 31.46875 -38.6875 "/></g></g></g></svg>