<svg xmlns="http://www.w3.org/2000/svg" xmlns:xlink="http://www.w3.org/1999/xlink" width="1920" zoomAndPan="magnify" viewBox="0 0 1440 809.999993" height="1080" preserveAspectRatio="xMidYMid meet" version="1.0"><defs><g/></defs><g fill="#000000" fill-opacity="1"><g transform="translate(367.930454, 452.037594)"><g><path d="M 16.5 -11.015625 C 8.164062 -20.109375 4 -31.25 4 -44.4375 C 4 -57.632812 8.164062 -68.804688 16.5 -77.953125 C 24.832031 -87.097656 35.421875 -91.671875 48.265625 -91.671875 C 60.066406 -91.671875 69.789062 -87.96875 77.4375 -80.5625 L 77.4375 -89.0625 L 108.15625 -89.0625 L 108.15625 0 L 77.78125 0 L 77.78125 -10.0625 L 77.4375 -10.0625 C 69.789062 -1.613281 60.066406 2.609375 48.265625 2.609375 C 35.421875 2.609375 24.832031 -1.929688 16.5 -11.015625 Z M 42.609375 -59.546875 C 38.617188 -55.609375 36.625 -50.570312 36.625 -44.4375 C 36.625 -38.3125 38.535156 -33.304688 42.359375 -29.421875 C 46.179688 -25.546875 51.21875 -23.609375 57.46875 -23.609375 C 63.488281 -23.609375 68.4375 -25.578125 72.3125 -29.515625 C 76.1875 -33.453125 78.125 -38.425781 78.125 -44.4375 C 78.125 -50.570312 76.125 -55.609375 72.125 -59.546875 C 68.132812 -63.484375 63.25 -65.453125 57.46875 -65.453125 C 51.5625 -65.453125 46.609375 -63.484375 42.609375 -59.546875 Z M 42.609375 -59.546875 "/></g></g></g><g fill="#000000" fill-opacity="1"><g transform="translate(470.158687, 452.037594)"><g><path d="M 10.421875 0 L 10.421875 -89.0625 L 41.140625 -89.0625 L 41.140625 -79.6875 L 41.5 -79.6875 C 49.476562 -87.675781 57.984375 -91.671875 67.015625 -91.671875 C 73.492188 -91.671875 79.566406 -90.335938 85.234375 -87.671875 C 90.910156 -85.003906 95.195312 -80.894531 98.09375 -75.34375 C 107.113281 -86.226562 116.953125 -91.671875 127.609375 -91.671875 C 137.097656 -91.671875 145.253906 -89.003906 152.078125 -83.671875 C 158.910156 -78.347656 162.328125 -70.019531 162.328125 -58.6875 L 162.328125 0 L 131.59375 0 L 131.59375 -50.34375 C 131.59375 -55.09375 130.289062 -59.054688 127.6875 -62.234375 C 125.082031 -65.421875 121.175781 -67.015625 115.96875 -67.015625 C 111.457031 -67.015625 108.015625 -65.65625 105.640625 -62.9375 C 103.265625 -60.21875 101.960938 -56.945312 101.734375 -53.125 L 101.734375 0 L 71 0 L 71 -50.34375 C 71 -55.09375 69.695312 -59.054688 67.09375 -62.234375 C 64.488281 -65.421875 60.582031 -67.015625 55.375 -67.015625 C 50.632812 -67.015625 47.078125 -65.535156 44.703125 -62.578125 C 42.328125 -59.628906 41.140625 -56.128906 41.140625 -52.078125 L 41.140625 0 Z M 10.421875 0 "/></g></g></g><g fill="#000000" fill-opacity="1"><g transform="translate(624.805172, 452.037594)"><g><path d="M 10.421875 0 L 10.421875 -89.0625 L 41.140625 -89.0625 L 41.140625 -79.6875 L 41.5 -79.6875 C 49.476562 -87.675781 57.984375 -91.671875 67.015625 -91.671875 C 71.410156 -91.671875 75.773438 -91.085938 80.109375 -89.921875 C 84.453125 -88.765625 88.617188 -86.972656 92.609375 -84.546875 C 96.609375 -82.117188 99.851562 -78.675781 102.34375 -74.21875 C 104.832031 -69.757812 106.078125 -64.582031 106.078125 -58.6875 L 106.078125 0 L 75.34375 0 L 75.34375 -50.34375 C 75.34375 -54.976562 73.867188 -59.03125 70.921875 -62.5 C 67.972656 -65.96875 64.125 -67.703125 59.375 -67.703125 C 54.75 -67.703125 50.550781 -65.90625 46.78125 -62.3125 C 43.019531 -58.726562 41.140625 -54.738281 41.140625 -50.34375 L 41.140625 0 Z M 10.421875 0 "/></g></g></g><g fill="#000000" fill-opacity="1"><g transform="translate(723.21487, 452.037594)"><g><path d="M 13.359375 -138.703125 C 16.953125 -142.296875 21.238281 -144.09375 26.21875 -144.09375 C 31.195312 -144.09375 35.476562 -142.296875 39.0625 -138.703125 C 42.644531 -135.117188 44.4375 -130.835938 44.4375 -125.859375 C 44.4375 -120.890625 42.644531 -116.609375 39.0625 -113.015625 C 35.476562 -109.429688 31.195312 -107.640625 26.21875 -107.640625 C 21.238281 -107.640625 16.953125 -109.429688 13.359375 -113.015625 C 9.773438 -116.609375 7.984375 -120.890625 7.984375 -125.859375 C 7.984375 -130.835938 9.773438 -135.117188 13.359375 -138.703125 Z M 10.421875 -89.0625 L 10.421875 0 L 41.140625 0 L 41.140625 -89.0625 Z M 10.421875 -89.0625 "/></g></g></g><g fill="#000000" fill-opacity="1"><g transform="translate(759.31276, 452.037594)"><g><path d="M 39.40625 -89.0625 L 39.40625 -46.703125 C 39.40625 -37.898438 40.734375 -31.644531 43.390625 -27.9375 C 46.054688 -24.238281 50.570312 -22.390625 56.9375 -22.390625 C 63.3125 -22.390625 67.828125 -24.238281 70.484375 -27.9375 C 73.148438 -31.644531 74.484375 -37.898438 74.484375 -46.703125 L 74.484375 -89.0625 L 105.203125 -89.0625 L 105.203125 -39.234375 C 105.203125 -24.421875 101.351562 -13.742188 93.65625 -7.203125 C 85.957031 -0.660156 73.71875 2.609375 56.9375 2.609375 C 40.15625 2.609375 27.914062 -0.660156 20.21875 -7.203125 C 12.53125 -13.742188 8.6875 -24.421875 8.6875 -39.234375 L 8.6875 -89.0625 Z M 39.40625 -89.0625 "/></g></g></g><g fill="#000000" fill-opacity="1"><g transform="translate(856.854579, 452.037594)"><g><path d="M 10.421875 0 L 10.421875 -89.0625 L 41.140625 -89.0625 L 41.140625 -79.6875 L 41.5 -79.6875 C 49.476562 -87.675781 57.984375 -91.671875 67.015625 -91.671875 C 73.492188 -91.671875 79.566406 -90.335938 85.234375 -87.671875 C 90.910156 -85.003906 95.195312 -80.894531 98.09375 -75.34375 C 107.113281 -86.226562 116.953125 -91.671875 127.609375 -91.671875 C 137.097656 -91.671875 145.253906 -89.003906 152.078125 -83.671875 C 158.910156 -78.347656 162.328125 -70.019531 162.328125 -58.6875 L 162.328125 0 L 131.59375 0 L 131.59375 -50.34375 C 131.59375 -55.09375 130.289062 -59.054688 127.6875 -62.234375 C 125.082031 -65.421875 121.175781 -67.015625 115.96875 -67.015625 C 111.457031 -67.015625 108.015625 -65.65625 105.640625 -62.9375 C 103.265625 -60.21875 101.960938 -56.945312 101.734375 -53.125 L 101.734375 0 L 71 0 L 71 -50.34375 C 71 -55.09375 69.695312 -59.054688 67.09375 -62.234375 C 64.488281 -65.421875 60.582031 -67.015625 55.375 -67.015625 C 50.632812 -67.015625 47.078125 -65.535156 44.703125 -62.578125 C 42.328125 -59.628906 41.140625 -56.128906 41.140625 -52.078125 L 41.140625 0 Z M 10.421875 0 "/></g></g></g><g fill="#000000" fill-opacity="1"><g transform="translate(1011.501082, 452.037594)"><g><path d="M 30.203125 -37.15625 C 35.765625 -37.15625 40.484375 -35.210938 44.359375 -31.328125 C 48.234375 -27.453125 50.171875 -22.738281 50.171875 -17.1875 C 50.171875 -11.75 48.234375 -7.085938 44.359375 -3.203125 C 40.484375 0.671875 35.765625 2.609375 30.203125 2.609375 C 24.765625 2.609375 20.109375 0.671875 16.234375 -3.203125 C 12.359375 -7.085938 10.421875 -11.75 10.421875 -17.1875 C 10.421875 -22.738281 12.359375 -27.453125 16.234375 -31.328125 C 20.109375 -35.210938 24.765625 -37.15625 30.203125 -37.15625 Z M 30.203125 -37.15625 "/></g></g></g></svg>